<svg width="73" height="60" viewBox="0 0 73 60" fill="none" xmlns="http://www.w3.org/2000/svg">
<path d="M9.32 25.4C10.12 24.1733 11.12 23.2133 12.32 22.52C13.52 21.8 14.8533 21.44 16.32 21.44V28.68H14.44C12.7333 28.68 11.4533 29.0533 10.6 29.8C9.74667 30.52 9.32 31.8 9.32 33.64V44H2.48V21.68H9.32V25.4ZM23.0294 19.36C21.8294 19.36 20.8427 19.0133 20.0694 18.32C19.3227 17.6 18.9494 16.72 18.9494 15.68C18.9494 14.6133 19.3227 13.7333 20.0694 13.04C20.8427 12.32 21.8294 11.96 23.0294 11.96C24.2027 11.96 25.1627 12.32 25.9094 13.04C26.6827 13.7333 27.0694 14.6133 27.0694 15.68C27.0694 16.72 26.6827 17.6 25.9094 18.32C25.1627 19.0133 24.2027 19.36 23.0294 19.36ZM26.4294 21.68V44H19.5894V21.68H26.4294ZM37.7863 38.36H47.4663V44H30.1463V38.56L39.4263 27.32H30.2262V21.68H47.2663V27.12L37.7863 38.36ZM54.63 19.36C53.43 19.36 52.4433 19.0133 51.67 18.32C50.9233 17.6 50.55 16.72 50.55 15.68C50.55 14.6133 50.9233 13.7333 51.67 13.04C52.4433 12.32 53.43 11.96 54.63 11.96C55.8033 11.96 56.7633 12.32 57.51 13.04C58.2833 13.7333 58.67 14.6133 58.67 15.68C58.67 16.72 58.2833 17.6 57.51 18.32C56.7633 19.0133 55.8033 19.36 54.63 19.36ZM58.07 46.88C58.07 49.6267 57.3767 51.6 55.99 52.8C54.6033 54.0267 52.67 54.64 50.19 54.64H47.51V48.84H49.15C49.8967 48.84 50.43 48.6933 50.75 48.4C51.07 48.1067 51.23 47.6267 51.23 46.96V21.68H58.07V46.88ZM66.4278 19.36C65.2278 19.36 64.2411 19.0133 63.4678 18.32C62.7211 17.6 62.3478 16.72 62.3478 15.68C62.3478 14.6133 62.7211 13.7333 63.4678 13.04C64.2411 12.32 65.2278 11.96 66.4278 11.96C67.6011 11.96 68.5611 12.32 69.3078 13.04C70.0811 13.7333 70.4678 14.6133 70.4678 15.68C70.4678 16.72 70.0811 17.6 69.3078 18.32C68.5611 19.0133 67.6011 19.36 66.4278 19.36ZM69.8278 21.68V44H62.9878V21.68H69.8278Z" fill="white"/>
<mask id="mask0" mask-type="alpha" maskUnits="userSpaceOnUse" x="2" y="11" width="69" height="44">
<path d="M9.32 25.4C10.12 24.1733 11.12 23.2133 12.32 22.52C13.52 21.8 14.8533 21.44 16.32 21.44V28.68H14.44C12.7333 28.68 11.4533 29.0533 10.6 29.8C9.74667 30.52 9.32 31.8 9.32 33.64V44H2.48V21.68H9.32V25.4ZM23.0294 19.36C21.8294 19.36 20.8427 19.0133 20.0694 18.32C19.3227 17.6 18.9494 16.72 18.9494 15.68C18.9494 14.6133 19.3227 13.7333 20.0694 13.04C20.8427 12.32 21.8294 11.96 23.0294 11.96C24.2027 11.96 25.1627 12.32 25.9094 13.04C26.6827 13.7333 27.0694 14.6133 27.0694 15.68C27.0694 16.72 26.6827 17.6 25.9094 18.32C25.1627 19.0133 24.2027 19.36 23.0294 19.36ZM26.4294 21.68V44H19.5894V21.68H26.4294ZM37.7863 38.36H47.4663V44H30.1463V38.56L39.4263 27.32H30.2262V21.68H47.2663V27.12L37.7863 38.36ZM54.63 19.36C53.43 19.36 52.4433 19.0133 51.67 18.32C50.9233 17.6 50.55 16.72 50.55 15.68C50.55 14.6133 50.9233 13.7333 51.67 13.04C52.4433 12.32 53.43 11.96 54.63 11.96C55.8033 11.96 56.7633 12.32 57.51 13.04C58.2833 13.7333 58.67 14.6133 58.67 15.68C58.67 16.72 58.2833 17.6 57.51 18.32C56.7633 19.0133 55.8033 19.36 54.63 19.36ZM58.07 46.88C58.07 49.6267 57.3767 51.6 55.99 52.8C54.6033 54.0267 52.67 54.64 50.19 54.64H47.51V48.84H49.15C49.8967 48.84 50.43 48.6933 50.75 48.4C51.07 48.1067 51.23 47.6267 51.23 46.96V21.68H58.07V46.88ZM66.4278 19.36C65.2278 19.36 64.2411 19.0133 63.4678 18.32C62.7211 17.6 62.3478 16.72 62.3478 15.68C62.3478 14.6133 62.7211 13.7333 63.4678 13.04C64.2411 12.32 65.2278 11.96 66.4278 11.96C67.6011 11.96 68.5611 12.32 69.3078 13.04C70.0811 13.7333 70.4678 14.6133 70.4678 15.68C70.4678 16.72 70.0811 17.6 69.3078 18.32C68.5611 19.0133 67.6011 19.36 66.4278 19.36ZM69.8278 21.68V44H62.9878V21.68H69.8278Z" fill="white"/>
</mask>
<g mask="url(#mask0)">
<path d="M71.5 10.5H18.5V20H71.5V10.5Z" fill="url(#paint0_linear)"/>
</g>
<defs>
<linearGradient id="paint0_linear" x1="18" y1="10" x2="71" y2="10" gradientUnits="userSpaceOnUse">
<stop stop-color="#00FFA3"/>
<stop offset="1" stop-color="#FF00E5"/>
</linearGradient>
</defs>
</svg>
